<svg width="40" height="40" viewBox="0 0 40 40" fill="none" xmlns="http://www.w3.org/2000/svg">
<path d="M20 40C31.0457 40 40 31.0457 40 20C40 8.95431 31.0457 0 20 0C8.95431 0 0 8.95431 0 20C0 31.0457 8.95431 40 20 40Z" fill="#5000B9"/>
<path fill-rule="evenodd" clip-rule="evenodd" d="M20.4583 9.74209C20.8702 10.0119 21.3097 10.6558 21.8089 11.7211C22.2722 12.7096 23.7828 17.1354 24.8269 20.5633C25.1346 21.5738 25.4842 22.5872 25.6035 22.8154L25.8206 23.2303L25.8257 21.0729C25.8327 18.2413 26.0513 17.2674 26.8812 16.3742C27.4394 15.7733 28.0211 15.5548 28.9258 15.6058C29.368 15.6309 29.7621 15.6835 29.8014 15.723C29.8768 15.7984 30.5669 18.3513 30.5244 18.3969C30.5108 18.4114 30.3002 18.3683 30.0563 18.3009C29.3928 18.1176 28.8203 18.4354 28.4434 19.1962C28.1593 19.7696 28.1496 19.8787 28.0704 23.4041C28.0055 26.2874 27.9487 27.1527 27.7902 27.6598C27.3002 29.2281 26.2003 29.2651 25.1927 27.7472C24.229 26.2954 23.3096 23.7881 21.9714 18.9631C21.1343 15.9451 20.8939 15.2294 20.7172 15.2294C20.5847 15.2294 20.6087 15.4402 21.2854 20.2077C21.8537 24.2118 22.0486 27.0122 21.8174 27.8582C21.7453 28.1217 21.5712 28.4611 21.4304 28.6122C21.2174 28.8409 21.0923 28.8764 20.6874 28.8232C19.6877 28.6918 18.8012 27.2776 17.4789 23.7044C16.1614 20.1446 15.8799 19.4305 15.6994 19.1921C15.5378 18.9783 15.5259 18.9932 15.5226 19.417C15.5204 19.6665 15.6589 20.8667 15.8302 22.0839C16.0412 23.5845 16.1448 24.8505 16.1517 26.0157C16.1607 27.5614 16.1358 27.7837 15.9046 28.2236C15.5087 28.9767 14.9452 29.0782 14.3008 28.5124C13.767 28.0437 13.3086 27.063 12.4495 24.5515C12.053 23.3923 11.6819 22.3605 11.625 22.2588C11.4299 21.9103 11.4071 22.2825 11.5617 23.2895C11.9351 25.7228 12.1031 27.2876 12.0503 27.838C11.9673 28.7013 11.7211 28.8606 10.468 28.8606H9.47363V28.3864V27.9123H9.95558C10.7243 27.9123 10.8961 27.7611 10.8961 27.0849C10.8961 26.7648 10.7853 25.7666 10.6501 24.8666C10.5147 23.9666 10.3947 22.7235 10.3834 22.1043C10.3525 20.4281 10.6782 19.8721 11.4928 20.2095C12.1743 20.4917 12.7997 21.6196 13.7426 24.2663C14.0849 25.2272 14.4361 26.1073 14.5232 26.2221C14.6635 26.4069 14.6819 26.3754 14.6852 25.9446C14.6873 25.6771 14.4931 24.237 14.2536 22.7442C13.8861 20.4525 13.817 19.7254 13.8092 18.0742C13.7991 15.9149 13.9226 15.4258 14.5157 15.2769C15.6378 14.9953 16.7823 16.8198 18.5375 21.6893C20.0862 25.9855 20.2593 25.5885 19.319 19.8982C18.9971 17.9497 18.6666 15.9287 18.5847 15.4072C18.5028 14.8856 18.4329 13.6055 18.4293 12.5625C18.4236 10.8946 18.4513 10.6089 18.6598 10.1927C19.0399 9.43391 19.7257 9.26203 20.4583 9.74209Z" fill="white"/>
</svg>
