<svg width="40" height="40" viewBox="0 0 40 40" fill="none" xmlns="http://www.w3.org/2000/svg">
<path d="M20 40C31.0457 40 40 31.0457 40 20C40 8.95431 31.0457 0 20 0C8.95431 0 0 8.95431 0 20C0 31.0457 8.95431 40 20 40Z" fill="#01AFF1"/>
<path fill-rule="evenodd" clip-rule="evenodd" d="M18.6898 9.51958C15.2808 9.94185 12.1787 12.1387 10.6282 15.2286C9.52227 17.4326 9.20745 19.7775 9.6984 22.1544C9.97763 23.5063 10.7294 25.1753 11.5486 26.2621C15.0997 30.9732 21.641 31.9188 26.3789 28.406C28.3455 26.9477 29.8621 24.5687 30.3592 22.1614C31.0291 18.9185 30.1342 15.5084 27.9692 13.0542C26.4262 11.305 24.3596 10.1101 22.0815 9.64966C21.2897 9.48961 19.4893 9.42058 18.6898 9.51958ZM18.6174 14.7253C17.5507 15.0667 16.6356 15.8442 16.1874 16.7899C15.8931 17.411 15.799 17.8664 15.799 18.6686C15.799 19.2271 15.7808 19.3032 15.5442 19.7338L15.2892 20.1975L15.3236 21.2556C15.3507 22.0869 15.3895 22.401 15.5048 22.7209C15.9258 23.8889 16.6651 24.7538 17.6577 25.2395C18.4985 25.6511 18.9054 25.7334 20.1001 25.7334C21.2776 25.7334 21.6987 25.6508 22.4974 25.263C22.8933 25.0708 23.1697 24.8629 23.5977 24.4356C24.5365 23.4983 24.8947 22.5373 24.8947 20.9561C24.8947 20.2424 24.8845 20.1915 24.6583 19.7801C24.4368 19.377 24.4194 19.2966 24.3845 18.505C24.3428 17.5634 24.1826 17.0039 23.771 16.3627C23.2871 15.6086 22.3466 14.9287 21.4721 14.7009C20.8671 14.5433 19.1398 14.5581 18.6174 14.7253ZM21.3073 16.4741C21.7723 16.6848 22.1807 17.0815 22.4053 17.5407C22.567 17.8711 22.604 18.0527 22.6271 18.6272L22.6548 19.317H20.1083H17.5617V18.7258C17.5617 17.9522 17.7113 17.4974 18.1126 17.0512C18.6591 16.4433 19.1198 16.2794 20.2058 16.3068C20.8126 16.3221 21.0524 16.3585 21.3073 16.4741ZM20.9041 21.105C21.2726 21.3861 21.3904 21.6568 21.3553 22.1418C21.3214 22.6095 21.0905 22.9772 20.739 23.1228L20.5231 23.2122V23.8241C20.5231 24.507 20.4731 24.6052 20.1252 24.6052C19.7869 24.6052 19.677 24.4024 19.677 23.7775V23.2632L19.3671 22.9647C18.8244 22.4423 18.7762 21.8301 19.2347 21.2852C19.4985 20.9717 19.7803 20.8618 20.2518 20.8888C20.5552 20.9061 20.711 20.9577 20.9041 21.105Z" fill="white"/>
</svg>
