<svg width="40" height="40" viewBox="0 0 40 40" fill="none" xmlns="http://www.w3.org/2000/svg">
<path d="M20 40C31.0457 40 40 31.0457 40 20C40 8.95431 31.0457 0 20 0C8.95431 0 0 8.95431 0 20C0 31.0457 8.95431 40 20 40Z" fill="#1ED760"/>
<path d="M19.9998 9.47363C14.1865 9.47363 9.47363 14.1865 9.47363 20.0001C9.47363 25.8137 14.1865 30.5263 19.9998 30.5263C25.8138 30.5263 30.5263 25.8137 30.5263 20.0001C30.5263 14.1869 25.8138 9.47414 19.9997 9.47414L19.9998 9.47363ZM24.8271 24.6557C24.6386 24.9649 24.2338 25.063 23.9247 24.8731C21.4532 23.3635 18.3419 23.0216 14.6778 23.8588C14.3248 23.9392 13.9728 23.7179 13.8924 23.3648C13.8115 23.0115 14.0319 22.6595 14.3858 22.5791C18.3956 21.663 21.8351 22.0574 24.6097 23.7532C24.9189 23.943 25.017 24.3465 24.8271 24.6557ZM26.1155 21.7895C25.8779 22.1756 25.3727 22.2975 24.9868 22.0599C22.1573 20.3208 17.8443 19.8171 14.4976 20.833C14.0636 20.9642 13.6052 20.7195 13.4734 20.2863C13.3427 19.8522 13.5874 19.3947 14.0207 19.2627C17.8435 18.1027 22.5961 18.6646 25.8453 20.6613C26.2312 20.8989 26.3531 21.4041 26.1155 21.7895ZM26.2262 18.8049C22.8336 16.7897 17.2363 16.6045 13.9972 17.5875C13.4771 17.7453 12.927 17.4517 12.7694 16.9315C12.6117 16.4111 12.9052 15.8614 13.4256 15.7033C17.1439 14.5746 23.3251 14.7927 27.231 17.1114C27.6998 17.3891 27.8532 17.9933 27.5754 18.4606C27.2989 18.9284 26.693 19.0827 26.2267 18.8049H26.2262Z" fill="white"/>
</svg>
