<?xml version="1.0" standalone="no"?>
<!DOCTYPE svg PUBLIC "-//W3C//DTD SVG 20010904//EN"
 "http://www.w3.org/TR/2001/REC-SVG-20010904/DTD/svg10.dtd">
<svg version="1.0" xmlns="http://www.w3.org/2000/svg"
 width="2240.000000pt" height="2240.000000pt" viewBox="0 0 2240.000000 2240.000000"
 preserveAspectRatio="xMidYMid meet">
<metadata>
Created by potrace 1.14, written by Peter Selinger 2001-2017
</metadata>
<g transform="translate(0.000000,2240.000000) scale(0.100000,-0.100000)"
fill="#000000" stroke="none">
<path d="M14877 15834 c-1 -1 -49 -5 -107 -8 -152 -9 -257 -22 -410 -51 -18
-4 -141 -34 -155 -39 -5 -2 -13 -4 -17 -5 -26 -5 -175 -64 -187 -74 -12 -10
-13 -9 -6 3 6 11 3 10 -12 -2 -11 -10 -27 -18 -35 -18 -9 0 -21 -7 -28 -15 -7
-8 -15 -13 -19 -11 -3 3 -33 -13 -65 -35 -32 -21 -60 -39 -62 -39 -18 0 -201
-185 -209 -211 -4 -10 -11 -19 -16 -19 -6 0 -8 -4 -4 -9 3 -5 0 -13 -5 -16
-30 -18 -103 -234 -94 -277 1 -10 -2 -18 -7 -18 -6 0 -6 -6 0 -18 6 -11 6 -24
0 -35 -6 -9 -6 -17 -2 -17 4 0 8 -13 8 -30 0 -16 -4 -30 -8 -30 -5 0 -5 -6 -1
-12 5 -7 9 -32 10 -55 5 -82 71 -262 108 -292 9 -8 16 -19 16 -26 0 -14 119
-138 168 -175 19 -14 39 -29 46 -35 28 -24 242 -135 260 -135 3 0 17 -5 33
-12 15 -6 33 -12 38 -13 6 -2 48 -14 95 -28 78 -23 100 -29 168 -42 13 -2 31
-6 40 -9 9 -3 37 -8 62 -11 25 -3 61 -8 80 -11 57 -9 112 -14 173 -18 31 -2
60 -6 64 -9 3 -4 14 -2 24 4 11 5 19 6 19 2 0 -4 49 -8 110 -8 60 0 110 2 110
5 0 3 19 6 43 6 155 4 357 37 549 90 35 9 75 23 91 31 15 7 27 11 27 9 0 -3
32 8 71 25 282 120 463 293 539 514 28 82 32 105 35 220 3 145 -12 233 -56
331 -77 172 -208 305 -401 408 -78 41 -256 111 -278 108 -3 0 -13 5 -24 10
-10 6 -33 12 -50 15 -17 3 -37 10 -45 16 -12 10 -13 9 -6 -3 7 -12 6 -13 -6
-3 -8 6 -32 14 -54 17 -22 3 -51 7 -65 11 -48 10 -148 26 -195 30 -131 11
-354 23 -358 19z"/>
<path d="M9555 14819 c-49 -22 -108 -48 -131 -59 -23 -11 -44 -20 -47 -20 -3
0 -27 -10 -54 -22 -26 -12 -50 -22 -53 -23 -6 -2 -42 -18 -105 -45 -62 -27
-98 -43 -105 -45 -12 -4 -61 -25 -124 -54 -38 -17 -75 -31 -82 -31 -8 0 -14
-4 -14 -10 0 -5 -6 -10 -13 -10 -10 0 -138 -53 -242 -100 -24 -11 -63 -28
-255 -109 -80 -34 -159 -68 -175 -76 -17 -7 -53 -23 -80 -35 -95 -41 -110 -47
-140 -60 -16 -8 -32 -14 -35 -15 -11 -4 -279 -119 -337 -146 -24 -10 -45 -19
-47 -19 -3 0 -35 -14 -73 -31 -37 -17 -84 -37 -103 -45 -153 -66 -179 -79
-183 -96 -3 -10 -2 -20 2 -22 7 -5 5 -110 -3 -131 -3 -8 -1 -17 4 -20 5 -3 5
-18 0 -35 -5 -17 -5 -30 0 -30 5 0 5 -13 0 -28 -4 -16 -4 -35 1 -43 4 -8 4
-21 0 -27 -4 -7 -5 -33 -1 -57 4 -24 3 -51 -2 -59 -6 -10 -5 -16 2 -16 8 0 8
-6 0 -20 -8 -14 -8 -20 0 -20 7 0 8 -6 1 -18 -6 -10 -6 -24 -1 -32 5 -8 6 -18
4 -22 -9 -14 -10 -88 -1 -88 4 0 5 -5 2 -10 -8 -12 -12 -100 -5 -100 3 0 5
-13 5 -30 0 -16 -3 -30 -7 -30 -4 0 -4 -10 -2 -22 3 -13 5 -29 5 -35 -3 -86
-2 -154 4 -162 3 -6 2 -11 -2 -11 -10 0 -9 -71 0 -87 4 -7 3 -15 -3 -18 -8 -5
-7 -11 1 -21 6 -8 8 -14 3 -14 -5 0 -8 -73 -6 -162 3 -186 3 -165 -1 -241 -1
-31 2 -57 7 -57 5 0 4 -6 -1 -12 -7 -11 -10 -304 -3 -333 1 -5 1 -12 0 -15 -6
-14 -4 -312 3 -317 4 -2 4 -10 0 -16 -8 -13 -14 -2557 -6 -2570 3 -5 7 -39 8
-75 2 -37 7 -87 11 -112 9 -59 10 -66 18 -124 3 -27 8 -51 10 -55 2 -3 7 -24
10 -46 4 -22 12 -58 17 -80 6 -22 13 -47 14 -55 2 -8 4 -15 5 -15 1 0 3 -11 6
-25 2 -14 12 -47 21 -75 10 -27 18 -52 18 -55 1 -3 5 -13 9 -22 4 -9 9 -22 10
-30 1 -7 10 -30 19 -52 9 -21 17 -40 17 -41 0 -2 18 -42 40 -89 21 -48 39 -89
39 -93 0 -3 3 -9 8 -12 4 -3 16 -22 27 -41 34 -64 145 -227 197 -291 88 -108
254 -265 373 -354 63 -47 117 -85 120 -85 3 0 33 -18 67 -40 34 -22 68 -40 75
-40 7 0 14 -3 16 -7 6 -16 217 -113 242 -113 9 0 16 -4 16 -8 0 -5 26 -16 58
-26 31 -10 68 -23 82 -29 14 -5 31 -11 38 -13 8 -1 21 -6 30 -10 9 -4 22 -8
27 -9 6 -2 45 -12 86 -23 42 -12 86 -23 100 -26 13 -3 35 -7 49 -10 76 -17
128 -27 155 -30 17 -2 41 -7 55 -10 14 -3 43 -8 65 -10 46 -5 134 -15 185 -21
197 -24 603 -23 860 1 25 2 65 6 90 8 25 3 45 5 45 6 0 2 26 7 80 14 28 3 61
8 75 11 14 4 34 8 45 10 37 7 90 17 110 20 11 2 20 4 20 5 0 1 11 3 25 6 14 2
57 14 95 25 224 65 208 61 300 95 11 4 22 8 25 9 83 29 347 157 445 216 28 16
60 35 73 41 12 6 22 15 22 20 0 4 5 8 11 8 6 0 24 10 39 23 15 12 38 29 50 37
87 57 299 250 395 361 161 185 298 414 396 659 7 19 14 37 15 40 0 3 4 13 8
22 4 9 9 22 10 30 2 7 6 20 9 28 43 106 106 434 112 590 2 36 4 65 5 65 5 0 5
1038 0 1045 -4 6 -472 11 -1206 12 l-1199 3 -2 -205 c-8 -625 -8 -730 2 -730
7 0 7 -3 0 -8 -6 -4 -11 -95 -11 -232 -1 -124 -4 -236 -7 -250 -17 -94 -118
-225 -207 -271 -25 -13 -47 -23 -50 -24 -3 0 -28 -7 -55 -13 -47 -12 -121 -11
-185 2 -87 18 -207 113 -251 198 -56 108 -54 72 -52 1238 1 591 2 1211 3 1377
l0 302 1197 -2 1197 -2 1 990 0 990 -647 0 c-362 0 -648 4 -648 9 0 5 -6 4
-12 -1 -7 -5 -74 -7 -148 -6 -74 2 -148 3 -165 2 -16 0 -52 0 -80 1 -58 0 -99
-1 -137 -4 -16 -1 -28 2 -28 7 0 4 -5 5 -12 1 -13 -8 -138 -12 -138 -4 0 3 -9
6 -20 6 -11 0 -20 -3 -20 -6 0 -3 -29 -5 -65 -5 -36 0 -65 4 -65 8 0 4 -7 4
-15 -1 -9 -4 -38 -5 -64 -2 -27 3 -59 3 -71 -2 -40 -15 -54 4 -55 74 0 34 -4
69 -9 77 -5 8 -5 12 0 8 5 -3 10 268 10 669 1 371 1 674 0 673 0 0 -41 -18
-91 -40z"/>
<path d="M3246 13663 c-1 -2 -74 -5 -162 -8 -166 -6 -259 -11 -259 -14 0 -1
-26 -4 -57 -6 -31 -2 -77 -6 -102 -9 -25 -3 -67 -8 -93 -12 -83 -9 -127 -16
-133 -19 -3 -1 -32 -6 -65 -10 -33 -4 -71 -10 -85 -12 -14 -3 -34 -6 -45 -8
-11 -1 -27 -5 -35 -9 -8 -3 -31 -8 -50 -10 -19 -3 -35 -5 -35 -6 0 -2 -39 -11
-60 -13 -11 -2 -26 -6 -32 -10 -7 -5 -13 -6 -13 -3 0 3 -21 -2 -47 -10 -27 -8
-59 -17 -73 -20 -14 -2 -36 -9 -50 -14 -14 -5 -61 -19 -105 -31 -44 -13 -82
-25 -85 -28 -3 -3 -12 -7 -20 -9 -31 -7 -204 -75 -269 -105 -36 -17 -68 -32
-71 -32 -3 0 -16 -7 -30 -15 -14 -8 -45 -24 -70 -36 -25 -11 -83 -44 -129 -73
-45 -28 -86 -51 -91 -51 -4 0 -10 -7 -14 -15 -3 -8 -11 -15 -17 -15 -15 0
-151 -101 -227 -169 -96 -85 -191 -183 -247 -255 -16 -21 -35 -44 -40 -50 -6
-6 -33 -47 -60 -91 -28 -44 -56 -89 -62 -100 -15 -24 -95 -190 -98 -205 -1 -3
-5 -13 -8 -22 -14 -37 -20 -53 -23 -63 -29 -98 -38 -130 -50 -185 -8 -36 -16
-78 -19 -95 -2 -16 -4 -30 -5 -30 -14 0 -20 -454 -6 -545 4 -30 9 -68 11 -85
7 -64 59 -276 77 -308 6 -12 11 -23 10 -24 -1 -2 4 -16 9 -33 6 -16 11 -33 12
-37 1 -12 108 -227 116 -233 3 -3 12 -17 20 -32 8 -15 22 -37 33 -47 10 -11
18 -24 18 -29 0 -4 8 -17 17 -28 10 -11 41 -46 68 -79 61 -74 173 -185 186
-185 5 0 9 -4 9 -8 0 -8 160 -132 201 -157 10 -5 45 -26 78 -45 34 -19 61 -38
61 -42 0 -5 4 -8 9 -8 5 0 57 -24 117 -52 60 -29 111 -53 114 -53 3 -1 21 -8
40 -17 82 -36 328 -118 395 -132 11 -3 65 -16 120 -30 55 -14 112 -27 128 -30
15 -3 39 -8 55 -11 15 -4 63 -15 107 -25 44 -10 92 -21 108 -24 15 -3 37 -8
48 -11 12 -4 31 -8 42 -10 12 -2 33 -6 47 -10 14 -3 34 -8 45 -10 11 -3 31 -7
45 -10 14 -4 34 -8 45 -10 11 -3 31 -7 45 -11 14 -3 38 -7 53 -10 16 -3 48
-11 71 -18 23 -7 51 -12 64 -11 12 1 22 -2 22 -7 0 -4 11 -8 24 -8 12 0 36 -4
52 -10 16 -5 43 -11 59 -14 17 -3 46 -9 65 -14 19 -5 38 -9 43 -10 4 -1 8 -2
10 -3 9 -3 46 -10 67 -13 14 -2 25 -5 25 -6 0 -1 11 -3 25 -6 14 -2 66 -13
115 -25 50 -12 97 -22 105 -24 8 -2 53 -13 100 -24 47 -12 95 -24 107 -27 12
-2 33 -8 47 -14 13 -5 27 -6 30 -3 3 4 6 1 6 -5 0 -6 7 -9 15 -6 8 4 15 1 15
-7 0 -7 3 -9 7 -6 3 4 12 2 20 -4 7 -6 13 -9 13 -5 0 9 76 -30 128 -66 62 -42
91 -76 119 -137 44 -97 30 -272 -33 -408 -106 -230 -354 -363 -614 -330 -52 7
-142 31 -162 43 -7 5 -15 9 -18 9 -26 3 -104 59 -159 113 -49 48 -79 89 -107
146 -21 43 -39 85 -41 92 -6 27 -11 49 -13 49 -2 0 -17 119 -19 155 -1 13
-163 15 -1392 16 l-1390 1 5 -116 c3 -64 8 -134 11 -156 4 -22 7 -56 9 -76 1
-19 5 -40 8 -45 3 -5 5 -24 4 -42 0 -17 2 -32 7 -32 4 0 7 -8 7 -17 0 -23 48
-212 58 -227 3 -6 8 -18 9 -27 5 -30 111 -271 123 -279 5 -3 10 -12 12 -20 2
-8 20 -41 40 -72 21 -31 38 -61 38 -65 0 -5 9 -15 20 -23 11 -8 20 -19 20 -25
0 -6 8 -20 17 -31 10 -11 41 -46 68 -79 77 -92 256 -265 275 -265 5 0 15 -8
22 -17 7 -10 25 -24 41 -32 15 -8 27 -18 27 -23 0 -4 5 -8 11 -8 6 0 16 -6 23
-13 8 -6 22 -18 32 -24 11 -7 36 -24 57 -38 20 -13 37 -22 37 -18 0 3 8 -1 18
-10 23 -21 205 -114 317 -161 76 -33 335 -128 343 -127 1 1 3 1 5 0 1 0 9 -2
17 -4 8 -3 67 -18 130 -35 123 -32 296 -70 345 -76 17 -2 39 -5 50 -7 11 -3
40 -8 65 -11 25 -3 56 -8 70 -10 70 -12 277 -34 390 -42 257 -17 691 -22 900
-9 180 10 225 13 225 15 0 0 23 3 50 5 53 5 116 12 178 20 20 3 52 7 70 9 113
16 124 18 190 30 12 3 39 7 61 10 21 4 42 8 46 11 4 3 25 7 46 10 22 4 91 20
154 37 63 16 124 32 135 35 11 2 25 5 30 7 6 1 20 8 33 14 12 7 22 10 22 7 0
-2 17 1 38 9 20 8 71 27 112 41 83 30 156 60 182 75 10 6 25 10 33 10 8 0 15
5 15 11 0 5 4 8 9 4 5 -3 15 0 23 7 7 7 20 14 28 16 49 11 448 258 458 284 2
4 10 8 18 8 8 0 14 4 14 8 0 5 19 23 43 39 69 51 217 201 300 305 42 53 77 99
77 102 0 2 16 28 35 57 32 49 94 168 128 249 39 89 103 324 111 405 2 22 5 40
6 40 3 0 6 36 14 133 3 40 8 77 11 82 3 5 1 11 -4 15 -6 3 -7 16 -3 28 4 12 7
42 6 67 -7 142 -15 248 -20 270 -3 14 -7 39 -9 55 -5 45 -12 73 -35 155 -11
41 -23 86 -26 100 -3 14 -9 29 -15 35 -5 5 -9 14 -9 21 0 22 -91 208 -126 257
-19 26 -34 52 -34 57 0 6 -4 10 -10 10 -5 0 -10 6 -10 14 0 8 -3 16 -8 18 -4
2 -23 23 -42 48 -34 43 -177 189 -216 221 -11 8 -44 34 -74 57 -30 23 -59 46
-65 50 -35 28 -105 72 -113 72 -6 0 -12 4 -14 9 -9 23 -323 180 -496 247 -64
25 -126 50 -137 55 -51 22 -362 118 -435 134 -8 2 -28 8 -43 14 -15 6 -31 10
-35 10 -4 -1 -9 0 -12 1 -3 1 -12 3 -20 5 -8 2 -26 7 -40 10 -14 4 -36 9 -50
12 -14 2 -32 7 -40 10 -18 7 -19 7 -95 22 -33 7 -71 16 -85 21 -14 5 -38 11
-55 14 -28 5 -44 8 -97 22 -13 3 -36 7 -51 10 -16 2 -32 6 -37 9 -5 3 -28 8
-52 11 -24 4 -49 11 -55 16 -7 6 -13 8 -13 5 0 -3 -28 1 -62 10 -35 8 -70 16
-78 18 -8 2 -37 9 -65 15 -27 7 -57 13 -65 14 -9 1 -21 5 -28 10 -6 4 -12 5
-12 2 0 -2 -39 6 -87 20 -49 13 -99 27 -113 30 -13 3 -30 10 -37 16 -7 6 -13
8 -13 4 0 -3 -24 6 -52 20 -191 97 -303 218 -357 385 -20 63 -19 178 3 279 10
45 50 145 63 158 7 7 13 20 13 28 0 8 5 14 10 14 6 0 10 4 10 10 0 22 120 122
192 159 43 22 78 39 78 36 0 -2 15 2 33 10 39 16 124 29 192 29 141 -1 301
-74 401 -184 55 -61 75 -87 87 -112 6 -16 15 -28 19 -28 5 0 7 -3 6 -7 0 -5 7
-26 17 -48 9 -22 18 -44 20 -50 1 -5 7 -30 14 -54 7 -24 13 -65 14 -92 0 -27
6 -50 11 -50 29 -3 2523 -4 2532 -1 12 3 12 50 -1 157 -15 120 -22 170 -25
170 -1 0 -3 11 -5 25 -2 21 -29 141 -39 175 -2 6 -4 13 -5 17 -5 20 -62 181
-70 196 -5 9 -30 62 -56 117 -48 100 -123 227 -137 233 -4 2 -8 10 -8 17 0 7
-3 15 -7 17 -5 2 -21 21 -37 43 -37 50 -40 53 -129 148 -40 42 -71 80 -69 82
3 3 1 5 -5 5 -6 0 -29 17 -52 38 -22 20 -46 42 -53 47 -7 6 -34 27 -60 48 -25
20 -51 37 -56 37 -5 0 -12 7 -16 15 -3 8 -12 15 -21 15 -8 0 -15 5 -15 10 0 6
-7 10 -15 10 -8 0 -15 5 -15 10 0 6 -7 10 -15 10 -8 0 -15 5 -15 10 0 6 -5 10
-10 10 -6 0 -29 12 -53 27 -102 66 -296 158 -450 214 -90 33 -224 78 -247 84
-8 1 -44 11 -80 20 -36 9 -72 19 -80 20 -8 2 -15 4 -15 5 0 2 -26 8 -60 15
-11 2 -31 6 -45 9 -30 7 -75 16 -110 21 -14 2 -52 9 -85 15 -63 13 -68 14
-150 24 -27 4 -63 9 -80 11 -28 4 -69 8 -190 21 -67 7 -136 11 -284 18 -69 4
-127 8 -129 11 -3 2 -13 0 -23 -6 -13 -6 -19 -6 -19 0 0 7 -9 7 -25 1 -14 -5
-25 -6 -25 -2 0 6 -258 11 -264 5z"/>
<path d="M21757 13424 c-1 -2 -32 -6 -67 -9 -36 -4 -76 -9 -90 -11 -14 -1 -43
-5 -65 -8 -22 -4 -51 -9 -65 -12 -35 -9 -52 -13 -75 -17 -11 -2 -25 -6 -30 -9
-6 -3 -27 -9 -48 -13 -20 -4 -37 -12 -37 -18 0 -6 -3 -8 -6 -4 -11 11 -214
-76 -222 -95 -2 -5 -10 -8 -17 -8 -11 0 -284 -171 -317 -199 -7 -6 -23 -19
-34 -29 -12 -9 -38 -30 -59 -47 -48 -40 -163 -154 -197 -196 -14 -19 -36 -45
-48 -59 -70 -80 -194 -319 -235 -450 -10 -30 -26 -80 -36 -110 -10 -30 -20
-66 -23 -80 -2 -14 -5 -25 -6 -25 -1 0 -4 -11 -6 -25 -3 -14 -9 -42 -15 -63
-5 -21 -12 -52 -14 -70 -3 -18 -9 -46 -14 -64 -5 -17 -7 -34 -4 -37 3 -2 1
-10 -3 -17 -4 -7 -9 -25 -10 -39 -3 -24 -14 -97 -20 -130 -2 -8 -6 -42 -10
-75 -4 -33 -8 -71 -10 -85 -9 -62 -32 -279 -33 -317 -1 -10 -39 -13 -154 -13
l-153 0 1 620 c0 341 4 620 8 620 5 0 5 5 1 12 -10 15 -13 107 -4 113 6 3 6
50 0 50 -6 0 -4 228 2 231 4 3 4 15 0 27 -5 12 -7 47 -5 77 2 30 3 60 3 65 0
6 -1 61 -3 123 -1 63 1 116 5 118 4 3 4 15 0 27 -10 26 -9 78 1 94 4 6 3 14
-3 18 -7 4 -7 12 0 26 8 13 7 19 0 19 -6 0 -9 3 -7 8 3 4 -577 8 -1289 9
l-1294 2 -1 -107 c0 -59 -1 -674 -2 -1367 -2 -693 -6 -1265 -10 -1271 -3 -6
-3 -14 1 -18 11 -11 8 -150 -3 -158 -7 -5 -7 -8 0 -8 12 0 13 -119 2 -137 -4
-6 -4 -14 0 -16 10 -6 9 -89 -1 -105 -4 -7 -3 -12 1 -12 10 0 9 -72 -1 -88 -3
-6 -3 -13 2 -16 10 -6 9 -57 -1 -73 -5 -7 -4 -13 1 -13 10 0 9 -36 0 -46 -4
-3 -4 -16 0 -28 10 -27 9 -107 -1 -123 -4 -6 -3 -14 1 -17 7 -4 9 -51 2 -51
-1 0 -3 -10 -4 -22 -2 -13 0 -23 4 -23 8 0 6 -32 -3 -47 -4 -6 -4 -14 1 -17 8
-5 7 -104 -1 -112 -3 -3 -1 -21 3 -40 5 -21 4 -34 -2 -34 -7 0 -7 -4 0 -13 6
-7 7 -18 2 -26 -4 -8 -6 -20 -4 -26 7 -18 10 -105 4 -105 -6 0 -3 -80 3 -87 3
-2 1 -20 -3 -39 -4 -18 -4 -34 0 -34 5 0 5 -13 0 -30 -5 -16 -5 -30 -2 -30 9
0 6 -76 -3 -90 -3 -6 -2 -10 4 -10 7 0 7 -8 2 -23 -5 -13 -5 -30 -1 -37 5 -8
6 -19 3 -24 -9 -15 -10 -56 -1 -56 4 0 5 -6 2 -13 -8 -22 -10 -157 -1 -157 4
0 3 -9 -3 -19 -6 -13 -7 -28 -1 -44 6 -14 8 -27 5 -30 -8 -8 -11 -78 -3 -83 4
-2 5 -14 3 -27 -9 -36 -10 -130 -2 -159 3 -16 4 -28 0 -28 -4 0 -7 -23 -7 -50
0 -28 4 -50 8 -50 5 0 5 -5 1 -12 -11 -18 -11 -1409 1 -1416 5 -3 602 -8 1326
-10 l1316 -3 2 1068 c1 587 4 1097 6 1133 3 69 14 185 21 235 3 17 7 46 10 65
2 19 7 42 9 50 2 8 7 31 11 50 8 45 12 65 14 65 1 0 4 11 7 25 6 31 8 41 16
60 3 8 17 52 31 96 14 45 40 112 58 150 17 38 31 72 30 77 -1 4 3 7 9 7 5 0 7
5 4 10 -3 6 -3 10 2 10 4 0 15 15 22 32 15 34 71 129 82 138 3 3 21 27 39 55
37 54 61 83 102 125 15 15 25 30 22 33 -3 3 4 8 15 12 12 3 21 13 21 21 0 8 3
14 8 14 4 0 31 23 60 50 29 28 54 50 57 50 3 0 13 8 23 18 36 33 204 152 216
152 3 0 28 13 56 30 27 16 50 26 50 22 0 -4 4 -2 8 3 9 14 209 99 282 121 30
9 72 22 93 30 20 8 37 12 37 9 0 -2 11 0 25 5 24 9 58 18 95 24 8 1 26 5 40 9
32 8 85 17 200 32 97 13 120 15 255 20 77 2 142 5 145 6 8 1 116 -2 205 -6
112 -5 233 -17 295 -30 l25 -6 0 1328 c0 1055 -3 1328 -12 1329 -7 1 -14 2
-15 3 -2 2 -19 4 -38 6 -19 1 -64 6 -100 10 -61 7 -467 15 -473 9z"/>
<path d="M12950 13360 c-8 -5 -17 -7 -20 -5 -6 4 -13 -1061 -9 -1275 0 -8 0
-80 0 -160 0 -80 -1 -152 -1 -160 0 -8 0 -94 -1 -190 0 -96 0 -181 0 -187 1
-10 80 -13 344 -15 l342 -3 0 -957 c0 -527 -4 -958 -8 -958 -4 0 -3 -8 2 -18
7 -13 6 -23 -1 -30 -7 -7 -8 -12 -2 -12 6 0 8 -30 7 -72 -2 -40 -3 -77 -3 -83
0 -5 1 -49 2 -98 2 -53 -1 -87 -7 -87 -7 0 -7 -3 0 -8 13 -9 14 -72 2 -72 -6
0 -6 -5 0 -12 5 -7 8 -24 6 -38 -5 -35 -5 -41 0 -72 2 -16 1 -28 -2 -28 -6 0
-5 -39 2 -92 2 -16 0 -28 -5 -28 -5 0 -6 -5 -2 -12 11 -17 11 -78 1 -78 -4 0
-5 -6 -1 -12 12 -19 12 -48 1 -48 -6 0 -6 -5 -1 -12 11 -15 11 -68 1 -85 -4
-6 -3 -14 3 -18 7 -4 7 -12 0 -26 -6 -10 -7 -19 -3 -19 4 0 8 -11 8 -25 0 -14
-3 -25 -7 -25 -8 0 -5 -27 4 -36 4 -3 3 -16 -1 -28 -5 -11 -5 -30 -1 -41 4
-11 3 -25 -2 -32 -5 -7 -5 -14 2 -18 7 -4 7 -12 0 -25 -6 -12 -7 -21 0 -25 5
-3 6 -15 1 -28 -5 -12 -5 -32 0 -44 5 -14 5 -23 -2 -23 -6 0 -6 -7 1 -19 7
-14 7 -22 0 -26 -8 -5 -8 -11 -1 -19 7 -9 7 -16 0 -23 -8 -8 -8 -13 0 -17 8
-5 8 -13 1 -26 -7 -13 -7 -21 0 -25 6 -4 7 -11 3 -18 -9 -15 -10 -57 -1 -57 4
0 3 -11 -2 -25 -6 -16 -6 -25 1 -25 6 0 6 -7 -1 -19 -6 -13 -7 -22 0 -26 5 -3
6 -15 1 -28 -5 -12 -5 -31 -1 -42 4 -11 4 -29 0 -41 -5 -11 -4 -28 1 -37 7
-11 6 -17 0 -17 -6 0 -6 -11 -1 -30 5 -16 5 -30 2 -30 -10 0 -8 -62 2 -78 4
-7 3 -12 -1 -12 -10 0 -9 -53 2 -69 3 -6 3 -11 -2 -11 -4 0 -8 -16 -8 -35 0
-19 4 -35 8 -35 5 0 5 -5 1 -12 -10 -16 -11 -118 -1 -118 4 0 5 -5 1 -12 -11
-17 -11 -138 -1 -138 5 0 5 -6 1 -12 -10 -16 -10 -101 0 -116 4 -7 4 -12 -1
-12 -10 0 -10 -127 1 -137 6 -6 2099 -18 2296 -13 25 1 51 1 58 1 170 -2 285
-2 288 1 1 2 6 1389 9 3083 3 1694 7 3194 8 3333 l2 252 -25 1 c-14 0 -700 2
-1526 3 -825 1 -1505 6 -1511 9 -7 4 -14 4 -16 0 -6 -9 -198 -10 -213 0 -5 3
-16 2 -24 -3z"/>
</g>
</svg>
