<svg width="24" height="24" viewBox="0 0 24 24" fill="none" xmlns="http://www.w3.org/2000/svg">
<path d="M12 24C18.6274 24 24 18.6274 24 12C24 5.37258 18.6274 0 12 0C5.37258 0 0 5.37258 0 12C0 18.6274 5.37258 24 12 24Z" fill="#5000B9"/>
<path fill-rule="evenodd" clip-rule="evenodd" d="M12.275 5.84564C12.5221 6.00751 12.7859 6.3939 13.0854 7.03306C13.3633 7.62617 14.2697 10.2816 14.8962 12.3384C15.0808 12.9447 15.2905 13.5527 15.3621 13.6896L15.4924 13.9385L15.4955 12.6441C15.4996 10.9452 15.6308 10.3608 16.1288 9.82489C16.4637 9.46438 16.8127 9.33327 17.3555 9.3639C17.6208 9.37893 17.8573 9.41051 17.8809 9.43419C17.9261 9.47941 18.3402 11.0112 18.3146 11.0385C18.3065 11.0472 18.1801 11.0214 18.0338 10.9809C17.6357 10.871 17.2922 11.0616 17.0661 11.5181C16.8956 11.8622 16.8898 11.9276 16.8422 14.0428C16.8033 15.7728 16.7692 16.292 16.6741 16.5963C16.3801 17.5372 15.7202 17.5595 15.1156 16.6487C14.5374 15.7776 13.9858 14.2732 13.1829 11.3783C12.6806 9.56746 12.5364 9.13805 12.4304 9.13805C12.3508 9.13805 12.3652 9.26449 12.7713 12.125C13.1123 14.5275 13.2292 16.2077 13.0905 16.7153C13.0472 16.8734 12.9428 17.0771 12.8582 17.1677C12.7305 17.3049 12.6554 17.3262 12.4125 17.2943C11.8127 17.2155 11.2808 16.367 10.4874 14.223C9.69688 12.0871 9.52799 11.6587 9.41968 11.5156C9.32273 11.3874 9.31559 11.3963 9.31357 11.6506C9.31225 11.8003 9.39536 12.5204 9.49812 13.2508C9.62475 14.1511 9.6869 14.9107 9.69107 15.6098C9.69644 16.5372 9.68153 16.6706 9.54277 16.9346C9.30524 17.3864 8.96715 17.4473 8.5805 17.1078C8.26023 16.8266 7.98517 16.2382 7.46974 14.7313C7.23183 14.0358 7.00919 13.4167 6.97503 13.3557C6.85799 13.1466 6.84429 13.3699 6.93707 13.9741C7.16109 15.4341 7.26189 16.373 7.23018 16.7032C7.18041 17.2212 7.03269 17.3167 6.28082 17.3167H5.6842V17.0322V16.7478H5.97337C6.43458 16.7478 6.53766 16.6571 6.53766 16.2513C6.53766 16.0593 6.47121 15.4603 6.39006 14.9203C6.30884 14.3803 6.23687 13.6345 6.23004 13.2629C6.21155 12.2572 6.40692 11.9236 6.8957 12.1261C7.30458 12.2954 7.67987 12.9722 8.24557 14.5602C8.45096 15.1367 8.66166 15.6648 8.71395 15.7336C8.79814 15.8445 8.80919 15.8256 8.81115 15.5671C8.81241 15.4067 8.69589 14.5426 8.5522 13.6469C8.33166 12.2719 8.29023 11.8356 8.28555 10.8449C8.27949 9.54933 8.35357 9.2559 8.70947 9.16653C9.38273 8.99758 10.0694 10.0923 11.1225 13.014C12.0517 15.5917 12.1556 15.3535 11.5914 11.9393C11.3983 10.7702 11.2 9.5576 11.1508 9.24472C11.1017 8.93177 11.0598 8.16371 11.0576 7.53788C11.0542 6.53714 11.0708 6.36573 11.1959 6.11604C11.424 5.66074 11.8355 5.55761 12.275 5.84564Z" fill="white"/>
</svg>
