<svg width="18" height="18" viewBox="0 0 18 18" fill="none" xmlns="http://www.w3.org/2000/svg">
<path opacity="0.2" d="M3 9.44355V10.5C3 14.625 4.125 15.75 8.25 15.75H9.75C13.875 15.75 15 14.625 15 10.5V9.44355C13.379 9.2376 11.0585 9 9 9C6.94148 9 4.62097 9.2376 3 9.44355Z" fill="white"/>
<path d="M7.23548 2.03332L1.1156 6.48415C0.8859 6.65121 0.75 6.91808 0.75 7.2021C0.75 7.75065 1.24094 8.17072 1.78405 8.09362C3.33193 7.8738 6.35283 7.50007 9 7.50007C11.6472 7.50007 14.668 7.8738 16.216 8.09362C16.7591 8.17072 17.25 7.75065 17.25 7.2021C17.25 6.91808 17.1141 6.65121 16.8844 6.48415L10.7645 2.03332C9.71257 1.26827 8.28743 1.26827 7.23548 2.03332Z" fill="white"/>
<path fill-rule="evenodd" clip-rule="evenodd" d="M3 10.5001V9.44361C4.62097 9.23766 6.94148 9.00006 9 9.00006C11.0585 9.00006 13.379 9.23766 15 9.44361V10.5001C15 14.6251 13.875 15.7501 9.75 15.7501H8.25C4.125 15.7501 3 14.6251 3 10.5001ZM9 10.5001C10.4707 10.5001 12.1002 10.6281 13.498 10.7778C13.471 12.6139 13.1745 13.298 12.8612 13.6112C12.5326 13.9398 11.7961 14.2501 9.75 14.2501H8.25C6.20392 14.2501 5.46736 13.9398 5.13878 13.6112C4.82553 13.298 4.52896 12.6139 4.50199 10.7778C5.89983 10.6281 7.52933 10.5001 9 10.5001Z" fill="white"/>
</svg>
