<svg width="28" height="28" viewBox="0 0 28 28" fill="none" xmlns="http://www.w3.org/2000/svg">
<path d="M14 28C21.732 28 28 21.732 28 14C28 6.26801 21.732 0 14 0C6.26801 0 0 6.26801 0 14C0 21.732 6.26801 28 14 28Z" fill="#C13584"/>
<path fill-rule="evenodd" clip-rule="evenodd" d="M10.8432 6.65905C9.91517 6.7277 9.3797 6.86711 8.69952 7.21711C8.14844 7.5007 7.49501 8.15405 7.21146 8.70521C6.95806 9.19757 6.82254 9.60821 6.71525 10.2082C6.64197 10.6182 6.63158 11.0899 6.63158 14.0028C6.63158 16.9157 6.64197 17.3874 6.71525 17.7974C6.90454 18.8563 7.21846 19.4988 7.85982 20.1402C8.50109 20.7815 9.14369 21.0954 10.2026 21.2847C10.6125 21.358 11.0843 21.3684 13.9972 21.3684C16.9101 21.3684 17.3818 21.358 17.7918 21.2847C18.8506 21.0954 19.4932 20.7815 20.1346 20.1402C20.7759 19.4988 21.0898 18.8563 21.2791 17.7974C21.3524 17.3874 21.3628 16.9157 21.3628 14.0028C21.3628 11.0899 21.3524 10.6182 21.2791 10.2082C21.0898 9.14938 20.7759 8.50678 20.1346 7.86543C19.4981 7.22899 18.8483 6.9095 17.8164 6.72573C17.4478 6.66009 16.8651 6.64451 14.3668 6.63373C12.7134 6.62658 11.1279 6.63796 10.8432 6.65905ZM16.8117 7.98952C18.0764 8.06364 18.6526 8.26045 19.1961 8.80395C19.7396 9.34744 19.9364 9.92365 20.0105 11.1883C20.0688 12.1824 20.0688 15.8232 20.0105 16.8174C19.9364 18.082 19.7396 18.6582 19.1961 19.2017C18.6526 19.7452 18.0764 19.942 16.8117 20.0161C15.8176 20.0744 12.1768 20.0744 11.1826 20.0161C9.91797 19.942 9.34183 19.7452 8.79826 19.2017C8.25484 18.6582 8.05803 18.082 7.9839 16.8174C7.92562 15.8232 7.92562 12.1824 7.9839 11.1883C8.05803 9.92365 8.25484 9.34744 8.79826 8.80395C9.324 8.27821 9.93727 8.05893 11.065 7.99335C11.9943 7.93934 15.9111 7.93676 16.8117 7.98952ZM17.5701 9.24812C17.3453 9.3697 17.2445 9.47477 17.1453 9.69081C17.0303 9.94112 17.0303 10.1797 17.1453 10.43C17.2529 10.6645 17.3629 10.7695 17.6071 10.8717C17.8465 10.9716 18.0668 10.9658 18.3149 10.8532C18.6169 10.7161 18.7924 10.4576 18.8145 10.1171C18.836 9.78616 18.7383 9.57262 18.4634 9.35017C18.2392 9.16869 17.8083 9.11946 17.5701 9.24812ZM13.311 10.2587C12.1002 10.5136 11.1461 11.2356 10.608 12.3044C10.311 12.8942 10.2272 13.2679 10.2272 14.0028C10.2272 14.5632 10.2455 14.7261 10.3428 15.036C10.7599 16.3644 11.6356 17.2401 12.964 17.6573C13.2739 17.7545 13.4368 17.7728 13.9972 17.7728C14.5576 17.7728 14.7205 17.7545 15.0303 17.6573C16.3588 17.2401 17.2344 16.3644 17.6516 15.036C17.7489 14.7261 17.7671 14.5632 17.7671 14.0028C17.7671 13.4424 17.7489 13.2795 17.6516 12.9697C17.2376 11.6513 16.3638 10.7712 15.0567 10.3565C14.6674 10.233 13.6926 10.1784 13.311 10.2587ZM14.8124 11.6913C15.5469 11.9649 16.0248 12.4416 16.3146 13.1897C16.4793 13.6146 16.4792 14.3919 16.3143 14.816C16.0236 15.5639 15.5564 16.0312 14.8103 16.3203C14.5681 16.4142 14.4211 16.4348 13.9972 16.4348C13.5733 16.4348 13.4263 16.4142 13.184 16.3203C12.438 16.0312 11.9707 15.5639 11.68 14.816C11.5857 14.5733 11.5652 14.4275 11.5652 14.0028C11.5652 13.4487 11.6516 13.1271 11.9162 12.6969C12.2574 12.1422 12.928 11.6936 13.6029 11.5686C13.875 11.5182 14.5249 11.5841 14.8124 11.6913Z" fill="white"/>
</svg>
