<svg width="24" height="24" viewBox="0 0 24 24" fill="none" xmlns="http://www.w3.org/2000/svg">
<path d="M12 24C18.6274 24 24 18.6274 24 12C24 5.37258 18.6274 0 12 0C5.37258 0 0 5.37258 0 12C0 18.6274 5.37258 24 12 24Z" fill="#01AFF1"/>
<path fill-rule="evenodd" clip-rule="evenodd" d="M11.2139 5.71214C9.1685 5.9655 7.30724 7.2836 6.37692 9.13754C5.71339 10.4599 5.52449 11.8669 5.81907 13.293C5.9866 14.1041 6.43768 15.1056 6.92917 15.7576C9.05987 18.5843 12.9846 19.1517 15.8274 17.044C17.0073 16.169 17.9173 14.7416 18.2156 13.2972C18.6175 11.3515 18.0805 9.30541 16.7816 7.83289C15.8557 6.78339 14.6158 6.06645 13.2489 5.79019C12.7739 5.69416 11.6936 5.65274 11.2139 5.71214ZM11.1705 8.83558C10.5304 9.0404 9.98141 9.50689 9.71248 10.0744C9.53589 10.447 9.47943 10.7202 9.47943 11.2015C9.47943 11.5367 9.4685 11.5823 9.32652 11.8407L9.17355 12.1189L9.19421 12.7538C9.21044 13.2525 9.23374 13.441 9.3029 13.6329C9.55553 14.3337 9.99909 14.8527 10.5947 15.1441C11.0991 15.3911 11.3433 15.4404 12.0601 15.4404C12.7666 15.4404 13.0192 15.3909 13.4985 15.1582C13.736 15.0429 13.9019 14.9181 14.1587 14.6618C14.7219 14.0993 14.9368 13.5228 14.9368 12.574C14.9368 12.1458 14.9307 12.1153 14.795 11.8684C14.6621 11.6266 14.6517 11.5783 14.6307 11.1034C14.6057 10.5384 14.5096 10.2028 14.2626 9.818C13.9723 9.36554 13.408 8.9576 12.8833 8.82093C12.5203 8.72638 11.4839 8.73522 11.1705 8.83558ZM12.7844 9.88482C13.0634 10.0113 13.3084 10.2493 13.4432 10.5248C13.5402 10.7231 13.5624 10.832 13.5763 11.1767L13.5929 11.5906H12.065H10.5371V11.2359C10.5371 10.7717 10.6268 10.4988 10.8676 10.2311C11.1955 9.86638 11.4719 9.76804 12.1235 9.78447C12.4876 9.79362 12.6314 9.81548 12.7844 9.88482ZM12.5425 12.6634C12.7636 12.832 12.8342 12.9945 12.8132 13.2855C12.7929 13.5661 12.6543 13.7867 12.4434 13.8741L12.3139 13.9277V14.2948C12.3139 14.7046 12.2839 14.7635 12.0752 14.7635C11.8722 14.7635 11.8062 14.6418 11.8062 14.2669V13.9583L11.6203 13.7792C11.2946 13.4657 11.2657 13.0984 11.5408 12.7715C11.6991 12.5834 11.8682 12.5175 12.1511 12.5337C12.3332 12.544 12.4266 12.575 12.5425 12.6634Z" fill="white"/>
</svg>
