<svg width="24" height="24" viewBox="0 0 24 24" fill="none" xmlns="http://www.w3.org/2000/svg">
<path d="M12 24C18.6274 24 24 18.6274 24 12C24 5.37258 18.6274 0 12 0C5.37258 0 0 5.37258 0 12C0 18.6274 5.37258 24 12 24Z" fill="#F14B54"/>
<path fill-rule="evenodd" clip-rule="evenodd" d="M5.6842 12.0004V18.3161H6.86248H8.04075V12.0004V5.68457H6.86248H5.6842V12.0004ZM14.0356 5.69258C12.7881 5.77566 11.734 6.23705 10.8792 7.07411C10.2108 7.72868 9.75334 8.54455 9.56532 9.41758C9.48644 9.78358 9.47115 9.92979 9.46641 10.3607C9.46168 10.7917 9.46825 10.8912 9.52256 11.2116C9.65898 12.0159 9.99239 12.7382 10.534 13.4031C10.6936 13.599 11.0573 13.952 11.2695 14.117C11.5602 14.3429 11.8886 14.5448 12.2053 14.692C13.6106 15.3456 15.2533 15.3024 16.6023 14.5764C17.9547 13.8485 18.8569 12.5606 19.0733 11.049C19.1038 10.836 19.1159 10.236 19.0943 10.0053C19.0085 9.08562 18.6649 8.23501 18.0794 7.49291C17.9207 7.29175 17.4649 6.84554 17.2604 6.69118C16.5318 6.1411 15.7301 5.8186 14.8418 5.71823C14.6644 5.69819 14.1818 5.68284 14.0356 5.69258Z" fill="white"/>
</svg>
