<svg width="18" height="18" viewBox="0 0 18 18" fill="none" xmlns="http://www.w3.org/2000/svg">
<path fill-rule="evenodd" clip-rule="evenodd" d="M8.99917 16.1261C12.9343 16.1261 16.1242 12.9362 16.1242 9.00113C16.1242 5.06607 12.9343 1.8761 8.99917 1.8761C5.06417 1.8761 1.87421 5.06607 1.87421 9.00113C1.87421 12.9362 5.06417 16.1261 8.99917 16.1261ZM6.344 7.30813C6.344 6.36162 7.1113 5.59431 8.05784 5.59431H8.59394V4.8754C8.59394 4.65103 8.77582 4.46915 9.00014 4.46915C9.22455 4.46915 9.40642 4.65103 9.40642 4.8754V5.59431H9.75022C10.8031 5.59431 11.6565 6.44778 11.6565 7.5006C11.6565 7.72493 11.4746 7.9068 11.2502 7.9068C11.0259 7.9068 10.844 7.72493 10.844 7.5006C10.844 6.89651 10.3543 6.40682 9.75022 6.40682H9.40642V8.70773L10.4846 9.06713C11.1844 9.30038 11.6565 9.95535 11.6565 10.693C11.6565 11.6396 10.8892 12.4068 9.94267 12.4068H9.40642V13.1254C9.40642 13.3498 9.22455 13.5317 9.00014 13.5317C8.77582 13.5317 8.59394 13.3498 8.59394 13.1254V12.4068H8.25022C7.19745 12.4068 6.344 11.5534 6.344 10.5006C6.344 10.2762 6.52588 10.0943 6.75025 10.0943C6.97461 10.0943 7.15649 10.2762 7.15649 10.5006C7.15649 11.1047 7.64617 11.5943 8.25022 11.5943H8.59394V9.29333L7.51582 8.934C6.81603 8.70075 6.344 8.04578 6.344 7.30813ZM8.59394 8.4369V6.40682H8.05784C7.55999 6.40682 7.15649 6.81035 7.15649 7.30813C7.15649 7.69605 7.40474 8.04053 7.77277 8.16315L8.59394 8.4369ZM9.40642 9.56415V11.5943H9.94267C10.4404 11.5943 10.844 11.1908 10.844 10.693C10.844 10.3051 10.5958 9.9606 10.2277 9.83798L9.40642 9.56415Z" fill="white"/>
</svg>
