<svg width="28" height="28" viewBox="0 0 28 28" fill="none" xmlns="http://www.w3.org/2000/svg">
<path d="M14 28C21.732 28 28 21.732 28 14C28 6.26801 21.732 0 14 0C6.26801 0 0 6.26801 0 14C0 21.732 6.26801 28 14 28Z" fill="#009771"/>
<path fill-rule="evenodd" clip-rule="evenodd" d="M12.3701 5.77234C11.1494 6.03901 10.0677 7.26457 9.44209 9.08981L9.22686 9.71775L8.2641 10.0132C7.73453 10.1758 7.2502 10.3586 7.18786 10.4196C7.09144 10.5138 6.54407 14.186 5.73212 20.1856C5.68865 20.5067 5.69932 20.5359 5.874 20.5739C6.21668 20.6484 15.7742 22.3028 15.784 22.2894C15.8234 22.2351 16.4629 7.74463 16.4274 7.71155C16.4022 7.68827 16.2744 7.70381 16.1434 7.74618C15.9073 7.82252 15.9034 7.81935 15.675 7.36637C15.3101 6.64308 14.7413 6.20878 14.159 6.20878C14.0254 6.20878 13.8667 6.14295 13.7783 6.05083C13.4672 5.7269 13.0004 5.63456 12.3701 5.77234ZM13.1887 6.35158C13.1887 6.38947 13.1211 6.4403 13.0387 6.4646C12.7749 6.54231 12.0771 7.2976 11.8408 7.76114C11.715 8.00798 11.5506 8.42083 11.4754 8.67866L11.3386 9.14736L10.731 9.31374C10.3968 9.40526 10.0779 9.49581 10.0223 9.51504C9.88751 9.56169 10.2511 8.61978 10.625 7.95375C11.1827 6.96036 12.0834 6.28265 12.846 6.28265C13.0345 6.28265 13.1887 6.31368 13.1887 6.35158ZM14.7609 7.03985C14.8984 7.17194 15.0834 7.42956 15.1721 7.61237L15.3334 7.94483L15.1082 8.03318C14.9842 8.08174 14.7935 8.14231 14.6843 8.16773C14.4912 8.21268 14.4842 8.20045 14.4319 7.72636C14.4023 7.45815 14.3567 7.13995 14.3307 7.01924C14.2666 6.72131 14.4378 6.72951 14.7609 7.03985ZM13.7366 7.20185C13.7856 7.38233 13.8256 7.72879 13.8256 7.97173V8.41354L13.0369 8.64086C12.086 8.91496 12.0476 8.91747 12.1162 8.70201C12.2249 8.36005 12.5492 7.75333 12.7609 7.4958C12.9604 7.25305 13.4697 6.87364 13.5958 6.87364C13.6242 6.87364 13.6876 7.02131 13.7366 7.20185ZM16.6919 7.86459C16.6919 7.98094 16.5472 11.1548 16.3703 14.9176C16.1934 18.6805 16.0591 21.8773 16.0717 22.0217L16.0947 22.2843L18.7175 21.7577C20.1599 21.4682 21.3528 21.1961 21.3682 21.1532C21.3943 21.0805 19.5086 9.07508 19.4432 8.89809C19.4261 8.85159 19.0792 8.79544 18.6298 8.76634L17.8464 8.71557L17.2691 8.18431C16.7141 7.67346 16.6919 7.66115 16.6919 7.86459ZM13.4834 11.4562C13.6934 11.4981 13.9068 11.5563 13.9575 11.5855C14.0896 11.6617 13.4037 13.4947 13.256 13.4606C13.197 13.4471 12.9351 13.3852 12.6738 13.3229C12.109 13.1886 11.4894 13.2359 11.1994 13.4356C11.0892 13.5113 10.9666 13.6925 10.9267 13.8382C10.8328 14.1818 10.9663 14.3748 11.6172 14.8364C12.4804 15.4485 12.7843 15.7454 13.0393 16.2258C13.2544 16.6315 13.2874 16.7715 13.2848 17.2691C13.2794 18.2874 12.8136 19.1074 11.9996 19.5317C11.6321 19.7233 11.463 19.7619 10.8772 19.7879C9.87918 19.8322 9.06556 19.5872 8.34692 19.0262L8.10914 18.8404L8.33992 18.127C8.46695 17.7346 8.57084 17.4007 8.57084 17.385C8.57084 17.3693 8.73767 17.463 8.94155 17.5932C9.38167 17.8741 9.99619 18.1023 10.3126 18.1023C10.8054 18.1023 11.181 17.5373 10.958 17.1313C10.9054 17.0356 10.5126 16.6416 10.0851 16.2555C9.14308 15.4051 9.00101 15.1139 9.07028 14.1756C9.16923 12.8362 10.1166 11.8235 11.5783 11.4948C12.1327 11.3701 12.9672 11.3532 13.4834 11.4562Z" fill="white"/>
</svg>
