<svg width="24" height="24" viewBox="0 0 24 24" fill="none" xmlns="http://www.w3.org/2000/svg">
<path d="M12 24C18.6274 24 24 18.6274 24 12C24 5.37258 18.6274 0 12 0C5.37258 0 0 5.37258 0 12C0 18.6274 5.37258 24 12 24Z" fill="#635BFF"/>
<path fill-rule="evenodd" clip-rule="evenodd" d="M11.1051 9.44625C11.1051 8.90493 11.5491 8.6967 12.2845 8.6967C13.339 8.6967 14.671 9.01596 15.7254 9.58508V6.3231C14.5738 5.86502 13.4361 5.68457 12.2845 5.68457C9.46788 5.68457 7.59474 7.15596 7.59474 9.61287C7.59474 13.444 12.8672 12.8332 12.8672 14.4851C12.8672 15.1236 12.3122 15.3317 11.5352 15.3317C10.3836 15.3317 8.91285 14.8598 7.74739 14.2213V17.525C9.03771 18.0802 10.342 18.3161 11.5352 18.3161C14.4212 18.3161 16.4053 16.8864 16.4053 14.4017C16.3914 10.2652 11.1051 11.0009 11.1051 9.44625Z" fill="white"/>
</svg>
