<svg width="28" height="28" viewBox="0 0 28 28" fill="none" xmlns="http://www.w3.org/2000/svg">
<path d="M14 28C21.732 28 28 21.732 28 14C28 6.26801 21.732 0 14 0C6.26801 0 0 6.26801 0 14C0 21.732 6.26801 28 14 28Z" fill="#1DA1F2"/>
<path d="M10.6056 21.3081C17.511 21.3081 21.2871 15.6854 21.2871 10.8098C21.2871 10.6501 21.2837 10.4911 21.2764 10.3328C22.0095 9.812 22.6467 9.16204 23.1491 8.42217C22.4765 8.71603 21.7526 8.91387 20.9932 9.00303C21.7684 8.54626 22.3634 7.82364 22.6441 6.96214C21.9188 7.38477 21.1154 7.69196 20.2602 7.85775C19.5751 7.14055 18.5998 6.69202 17.5198 6.69202C15.4466 6.69202 13.7654 8.34444 13.7654 10.3814C13.7654 10.6709 13.7983 10.9526 13.8627 11.2227C10.7424 11.0684 7.97571 9.60016 6.12429 7.36752C5.80187 7.91279 5.61595 8.54626 5.61595 9.22209C5.61595 10.5023 6.27872 11.6324 7.2866 12.2935C6.67068 12.2748 6.09208 12.1087 5.58631 11.8321C5.58576 11.8475 5.58576 11.8626 5.58576 11.8791C5.58576 13.6661 6.87982 15.1581 8.59768 15.4962C8.28224 15.5807 7.95029 15.6261 7.60773 15.6261C7.3662 15.6261 7.13088 15.6027 6.90215 15.5595C7.38012 17.0256 8.76605 18.0925 10.4092 18.1223C9.1243 19.1122 7.50561 19.7018 5.74642 19.7018C5.44376 19.7018 5.14477 19.6849 4.85089 19.6507C6.51239 20.6974 8.48531 21.3081 10.6057 21.3081" fill="white"/>
</svg>
