<svg width="28" height="28" viewBox="0 0 28 28" fill="none" xmlns="http://www.w3.org/2000/svg">
<path d="M14 28C21.732 28 28 21.732 28 14C28 6.26801 21.732 0 14 0C6.26801 0 0 6.26801 0 14C0 21.732 6.26801 28 14 28Z" fill="#282828"/>
<path d="M22.8501 9.4698C22.6482 8.72021 22.0572 8.12919 21.3076 7.92737C19.9382 7.55261 14.4605 7.55261 14.4605 7.55261C14.4605 7.55261 8.98277 7.55261 7.61335 7.913C6.87815 8.11482 6.27271 8.72021 6.0709 9.4698C5.71053 10.8392 5.71053 13.679 5.71053 13.679C5.71053 13.679 5.71053 16.5332 6.0709 17.8882C6.27271 18.6378 6.86374 19.2288 7.61335 19.4307C8.99714 19.8054 14.4605 19.8054 14.4605 19.8054C14.4605 19.8054 19.9382 19.8054 21.3076 19.4451C22.0572 19.2433 22.6482 18.6523 22.8501 17.9027C23.2104 16.5332 23.2105 13.6935 23.2105 13.6935C23.2105 13.6935 23.2249 10.8392 22.8501 9.4698Z" fill="white"/>
<path d="M17.2717 13.6783L12.7166 11.0547V16.3019L17.2717 13.6783Z" fill="#191919"/>
</svg>
