<svg width="104" height="45" viewBox="0 0 104 45" fill="none" xmlns="http://www.w3.org/2000/svg">
<g clip-path="url(#clip0)">
<path d="M98.9038 24.4893C99.2548 24.4893 100.395 24.5028 101.178 24.6717L101.198 12.9124C100.537 12.8177 99.862 12.7637 99.2007 12.7637C97.5409 12.7637 96.1646 13.0475 95.1189 13.622C91.516 15.6157 90.632 17.4945 90.0856 22.9755L90.0721 23.1242H88.7024L88.7227 13.1354L77.0234 13.1151L76.9626 42.6691L88.9385 42.6963L88.9588 33.532C88.9723 27.8549 92.6898 24.4758 98.9038 24.4893Z" fill="white"/>
<path d="M73.4069 42.6563L73.4677 13.1022L58.3813 13.0752L58.361 21.8813L61.4713 21.888L61.4309 42.6293L73.4069 42.6563Z" fill="white"/>
<path d="M47.2151 27.9626L47.2016 33.856C47.2016 34.8696 46.3784 35.6941 45.3662 35.6941C44.3544 35.6941 43.5311 34.8696 43.5311 33.856L43.5514 21.8396L54.3667 21.8599L54.3871 13.0876L43.5715 13.0673L43.5852 6.43066L32.3514 11.175L32.3109 32.0581C32.2975 39.1004 36.8583 43.1418 44.8332 43.1622C52.7611 43.1757 58.1046 38.7354 58.1114 32.1123L58.1181 27.9896L47.2151 27.9626Z" fill="white"/>
<path d="M74.1627 6.22129C74.2369 7.8568 73.036 9.01922 71.6258 9.58016C70.1753 10.1749 68.6436 10.3101 67.4427 10.3371C66.2483 10.3101 64.7169 10.1681 63.2595 9.58016C61.8494 9.01922 60.6484 7.8568 60.7226 6.22129C60.6484 4.58577 61.8494 3.42333 63.2595 2.86239C64.7101 2.26767 66.2417 2.1325 67.4427 2.10547C68.6368 2.1325 70.1684 2.27443 71.6258 2.86239C73.036 3.42333 74.2369 4.58577 74.1627 6.22129Z" fill="white"/>
<path d="M19.4445 24.6784L15.5245 23.7931C12.9404 23.1781 12.9404 21.3669 12.9404 21.3669C12.9404 18.5757 15.6324 18.5757 15.6324 18.5757C17.1168 18.5757 18.3245 19.8733 18.3245 21.3669H29.8552C29.5448 15.1492 24.4171 11.7363 15.3828 11.7228C9.91098 11.7093 5.62663 12.9731 3.00205 15.3655C1.30855 16.9064 0.404454 18.9406 0.404454 21.2452C0.404454 25.6651 3.04254 28.6455 8.4941 29.8418L15.2951 31.3353C15.2951 31.3353 15.2951 31.3353 15.3018 31.3353C16.5028 31.6259 17.9264 31.9099 17.9534 33.1602C17.9264 36.8637 12.5963 36.8502 12.5693 33.1602L-0.000366211 33.1398C0.0131278 39.6144 5.22181 43.1895 14.6811 43.203C20.1057 43.2165 24.208 41.9866 26.8661 39.5604C28.6069 37.9721 29.4637 35.9717 29.4637 33.4439C29.4637 28.9498 26.5692 26.2666 19.4445 24.6784Z" fill="white"/>
</g>
<defs>
<clipPath id="clip0">
<rect width="104" height="45" fill="white"/>
</clipPath>
</defs>
</svg>
