<svg width="40" height="40" viewBox="0 0 40 40" fill="none" xmlns="http://www.w3.org/2000/svg">
<rect width="40" height="40" rx="20" fill="#A4B96D"/>
<path fill-rule="evenodd" clip-rule="evenodd" d="M19.9989 29.501C25.2457 29.501 29.4989 25.2477 29.4989 20.001C29.4989 14.7543 25.2457 10.501 19.9989 10.501C14.7523 10.501 10.499 14.7543 10.499 20.001C10.499 25.2477 14.7523 29.501 19.9989 29.501ZM16.4587 17.7437C16.4587 16.4817 17.4818 15.4586 18.7438 15.4586H19.4586V14.5C19.4586 14.2009 19.7011 13.9584 20.0002 13.9584C20.2994 13.9584 20.5419 14.2009 20.5419 14.5V15.4586H21.0003C22.4041 15.4586 23.542 16.5965 23.542 18.0003C23.542 18.2994 23.2995 18.5419 23.0003 18.5419C22.7012 18.5419 22.4587 18.2994 22.4587 18.0003C22.4587 17.1949 21.8058 16.5419 21.0003 16.5419H20.5419V19.6098L21.9795 20.089C22.9126 20.4 23.542 21.2733 23.542 22.2568C23.542 23.5189 22.5189 24.5419 21.2569 24.5419H20.5419V25.5C20.5419 25.7992 20.2994 26.0417 20.0002 26.0417C19.7011 26.0417 19.4586 25.7992 19.4586 25.5V24.5419H19.0003C17.5966 24.5419 16.4587 23.404 16.4587 22.0003C16.4587 21.7011 16.7012 21.4586 17.0004 21.4586C17.2995 21.4586 17.542 21.7011 17.542 22.0003C17.542 22.8057 18.1949 23.4586 19.0003 23.4586H19.4586V20.3906L18.0211 19.9115C17.0881 19.6005 16.4587 18.7272 16.4587 17.7437ZM19.4586 19.2487V16.5419H18.7438C18.08 16.5419 17.542 17.08 17.542 17.7437C17.542 18.2609 17.873 18.7202 18.3637 18.8837L19.4586 19.2487ZM20.5419 20.7517V23.4586H21.2569C21.9206 23.4586 22.4587 22.9205 22.4587 22.2568C22.4587 21.7396 22.1277 21.2803 21.6369 21.1168L20.5419 20.7517Z" fill="white"/>
</svg>
